HIERARCHY
ROOT Hips
{
	OFFSET	0.00	0.00	0.00
	CHANNELS 6 Xposition Yposition Zposition Zrotation Xrotation Yrotation
	JOINT Spine
	{
		OFFSET	 0.00	0.01	 0.00
		CHANNELS 3 Zrotation Xrotation Yrotation
		JOINT Spine1
		{
			OFFSET	 0.00	 2.45913012437421	 0.00
			CHANNELS 3 Zrotation Xrotation Yrotation
            JOINT Neck
            {
                OFFSET	 0.00	 2.48462964506057	 0.00
                CHANNELS 3 Zrotation Xrotation Yrotation
                JOINT Head
                {
                    OFFSET	 0.00	 0.927524780924562	 0.00
                    CHANNELS 3 Zrotation Xrotation Yrotation
                    End Site 
                    {
                        OFFSET	 0.00	 1.14999962169752	 0.00
                    }
                }
            }
			JOINT LeftShoulder
			{
				OFFSET	 0.00	 2.48462964506057	 0.00
				CHANNELS 3 Zrotation Xrotation Yrotation
				JOINT LeftUpArm
				{
					OFFSET	 0.00	 1.24881979654096	 0.00
					CHANNELS 3 Zrotation Xrotation Yrotation
					JOINT LeftForeArm
					{
						OFFSET	 0.00	2.59758046908119	 0.00
						CHANNELS 3 Zrotation Xrotation Yrotation
						JOINT LeftHand
						{
							OFFSET	 0.00	2.45542024364365	 0.00
							CHANNELS 3 Zrotation Xrotation Yrotation
							JOINT LeftHandThumb 
							{
								OFFSET	 0.00	0.00	 0.00
								CHANNELS 3 Zrotation Xrotation Yrotation
								End Site
								{
									OFFSET	 0.00	0.00	1.00000003353624
								}
							}
							JOINT L_Wrist_End 
							{
								OFFSET	 0.00	0.99999967115358	 0.00
								CHANNELS 3 Zrotation Xrotation Yrotation
								End Site 
								{
									OFFSET	 0.00	 0.00	 0.00
								}
							}
						}
					}
				}
			}
			JOINT RightShoulder
			{
				OFFSET	 0.00	 2.48462964506057	 0.00
				CHANNELS 3 Zrotation Xrotation Yrotation
				JOINT RightUpArm
				{
					OFFSET	 0.00	 1.24881979654096	 0.00
					CHANNELS 3 Zrotation Xrotation Yrotation
					JOINT RightForeArm
					{
						OFFSET	 0.00	2.59758046908119	 0.00
						CHANNELS 3 Zrotation Xrotation Yrotation
						JOINT RightHand
						{
							OFFSET	 0.00	2.45542024364365	 0.00
							CHANNELS 3 Zrotation Xrotation Yrotation
							JOINT RightHandThumb 
							{
								OFFSET	 0.00	0.00	 0.00
								CHANNELS 3 Zrotation Xrotation Yrotation
								End Site
								{
									OFFSET	 0.00	0.00	1.00000003353624
								}
							}
							JOINT R_Wrist_End 
							{
								OFFSET	 0.00	0.99999967115358	 0.00
								CHANNELS 3 Zrotation Xrotation Yrotation
								End Site 
								{
									OFFSET	 0.00	 0.00	 0.00
								}
							}
						}
					}
				}
			}
		}
	}
	JOINT LeftUpLeg
	{
		OFFSET	 1.2719394002717	 0.00	 0.00
		CHANNELS 3 Zrotation Xrotation Yrotation
		JOINT LeftLowLeg
		{
			OFFSET	 0.00	-4.3429100912261	 0.00
			CHANNELS 3 Zrotation Xrotation Yrotation
			JOINT LeftFoot
			{
				OFFSET	 0.00	-4.48767017425826	 0.00
				CHANNELS 3 Zrotation Xrotation Yrotation
				JOINT LeftToeBase
                {
                    OFFSET	 0.00	0.00	 1.51507020887566
                    CHANNELS 3 Zrotation Xrotation Yrotation
                    End Site 
                    {
                        OFFSET	 0.00	0.00	 0.75000010571191
                    }
                }
			}
		}
	}
	JOINT RightUpLeg
	{
		OFFSET	 -1.2719393604653	 0.00	 0.00
		CHANNELS 3 Zrotation Xrotation Yrotation
		JOINT RightLowLeg
		{
			OFFSET	 0.00	-4.3429100912261	 0.00
			CHANNELS 3 Zrotation Xrotation Yrotation
			JOINT RightFoot
			{
				OFFSET	 0.00	-4.48767017425826	 0.00
				CHANNELS 3 Zrotation Xrotation Yrotation
				JOINT RightToeBase
                {
                    OFFSET	 0.00	0.00	 1.51507020887566
                    CHANNELS 3 Zrotation Xrotation Yrotation
                    End Site 
                    {
                        OFFSET	 0.00	0.00	 0.749999965609858
                    }
                }   
			}
		}
	}
}
MOTION 
Frames:	15 
Frame Time: 0.02 
  1.0081199645996093 5.875089721679688 9.3172998046875 -122.395 83.9007 478.159 -2.9471 -5.03319 -2.11511 16.0075 8.53952 -1.85415 -22.104 58.9494 6.96771 68.4054 -77.8116 772.706 -127.4253 -5.92154 8.26303 -29.2955 -1.81628 22.3079 0.0 90.3628 0.0 14.601 -23.4966 49.8208 0.0 0.0 0.0 0.0 0.0 0.0 115.2495 -1.75287 -15.4737 35.4448 -8.62129 -0.844539 0.0 119.082 0.0 -8.27377 -77.8314 49.3097 0.0 0.0 0.0 0.0 0.0 0.0 3.68641 0.305382 -4.01353 0.0 7.06279 0.0 -8.41356 0.8576002 7.66054 0.0 -38.885002 0.0 1.5895 -20.6847 2.73215 0.0 39.815 0.0 15.1311 6.0201597 -2.96497 0.0 -43.1181 0.0 
  0.9993119812011719 5.853099975585938 9.32343994140625 -124.323 83.4162 480.513 -2.8864 -5.27553 -2.23439 16.0605 8.27209 -1.93635 -21.233 59.1413 6.0413 68.6659 -77.5515 773.071 -127.1884 -5.84691 8.44154 -29.183 -1.84643 22.9421 0.0 90.5641 0.0 14.8621 -23.6936 50.2637 0.0 0.0 0.0 0.0 0.0 0.0 115.1157 -1.86821 -15.5861 35.5199 -9.42734 -1.26287 0.0 115.761 0.0 -33.7247 -63.4737 -6.29932 0.0 0.0 0.0 0.0 0.0 0.0 4.06069 -0.0677325 -4.01004 0.0 7.07269 0.0 -8.45679 0.85219955 7.34881 0.0 -38.8582 0.0 2.06816 -20.0223 2.21186 0.0 35.8741 0.0 16.1172 6.1419497 -4.3485 0.0 -42.4 0.0 
  0.9887090301513672 5.8260302734375 9.32760986328125 -125.899 82.9919 482.424 -2.85579 -5.58983 -2.32563 16.228 8.11085 -2.00281 -20.6908 59.3221 5.39418 68.7023 -77.4306 773.163 -127.0642 -5.80249 8.69184 -29.1222 -1.84743 23.3041 0.0 90.7608 0.0 14.6708 -24.0542 50.5072 0.0 0.0 0.0 0.0 0.0 0.0 114.9805 -1.96247 -15.4356 35.6937 -10.0539 -0.327953 0.0 115.013 0.0 -16.8107 -60.7992 10.5269 0.0 0.0 0.0 0.0 0.0 0.0 4.38575 -0.277548 -4.03637 0.0 6.94903 0.0 -8.49279 0.8231001 7.16169 0.0 -38.7536 0.0 2.52397 -19.188 2.00125 0.0 31.7095 0.0 17.2933 6.69098 -5.51625 0.0 -42.871002 0.0 
  0.9743720245361328 5.795570068359375 9.330709838867188 -127.269 82.5825 484.078 -2.83424 -6.00079 -2.408 16.4065 8.07647 -2.08312 -20.2382 59.5608 4.80376 69.3901 -77.3828 773.898 -127.0305 -5.80741 8.81989 -29.0466 -1.87233 23.6064 0.0 90.9325 0.0 14.5437 -24.3535 50.5079 0.0 0.0 0.0 0.0 0.0 0.0 114.9625 -2.00804 -15.3239 35.7912 -10.5266 3.07806 0.0 114.442 0.0 27.7904 -52.4816 68.8504 0.0 0.0 0.0 0.0 0.0 0.0 4.72331 -0.424881 -4.00711 0.0 6.79181 0.0 -8.54922 0.7816 6.92126 0.0 -38.5779 0.0 3.06911 -18.2771 2.1894 0.0 27.6673 0.0 18.4963 6.94506 -6.49332 0.0 -42.096703 0.0 
  0.9570880126953125 5.7625799560546875 9.33135986328125 -128.639 82.2825 485.69 -2.80458 -6.37978 -2.45042 16.3934 8.01696 -2.12223 -19.6667 59.8586 4.11894 70.4801 -77.2724 775.072 -127.0179 -5.87669 8.61238 -28.9097 -2.05115 24.0904 0.0 91.0782 0.0 14.2347 -24.5468 50.3444 0.0 0.0 0.0 0.0 0.0 0.0 114.9481 -2.04679 -14.894 35.8017 -10.987 4.69423 0.0 113.172 0.0 43.5672 -38.3699 96.4919 0.0 0.0 0.0 0.0 0.0 0.0 4.97394 -0.526347 -3.98519 0.0 6.69346 0.0 -8.66068 0.69089985 6.69365 0.0 -38.543503 0.0 3.50508 -17.3089 2.60436 0.0 23.8991 0.0 19.5237 7.14318 -6.80872 0.0 -42.358902 0.0 
  0.9366010284423828 5.726179809570312 9.331209716796875 -130.246 81.9827 487.396 -2.7253 -6.88752 -2.41422 16.2755 8.01956 -2.10227 -18.7989 60.2953 3.05915 71.6931 -77.1026 776.576 -127.0651 -5.93731 8.50898 -28.7898 -2.20777 24.2832 0.0 91.1524 0.0 13.8272 -24.8257 50.1654 0.0 0.0 0.0 0.0 0.0 0.0 114.9557 -1.99684 -14.6691 35.7872 -11.1484 6.02971 0.0 111.698 0.0 51.3037 -26.546 114.844 0.0 0.0 0.0 0.0 0.0 0.0 5.21383 -0.612441 -3.96613 0.0 6.60473 0.0 -8.8202 0.54950047 6.54832 0.0 -38.4622 0.0 3.96795 -16.534 3.37532 0.0 20.7478 0.0 19.2638 7.88445 -6.90575 0.0 -40.9972 0.0 
  0.9120939636230468 5.68875 9.32843017578125 -132.047 81.7501 489.233 -2.60452 -7.44755 -2.31748 15.9839 8.09262 -2.04556 -18.0151 60.6026 2.1578 72.4816 -76.9151 777.518 -127.075195 -5.96493 8.48362 -28.7128 -2.35067 24.2531 0.0 91.178 0.0 13.5116 -25.1479 49.9715 0.0 0.0 0.0 0.0 0.0 0.0 115.0726 -1.94918 -14.3918 35.7924 -11.3367 6.60555 0.0 110.266 0.0 53.4141 -17.4107 125.788 0.0 0.0 0.0 0.0 0.0 0.0 5.38618 -0.730948 -4.00335 0.0 6.64776 0.0 -8.97428 0.3274002 6.4835 0.0 -38.3587 0.0 4.40435 -15.902 4.3167 0.0 18.2942 0.0 18.2435 8.851749 -7.37605 0.0 -40.471 0.0 
  0.8843990325927734 5.649190063476563 9.32530029296875 -132.961 81.6517 490.027 -2.51393 -7.87888 -2.15534 15.7728 8.21199 -1.92207 -17.3067 60.8875 1.32758 73.0909 -76.7544 778.31 -127.1242 -6.00448 8.58996 -28.7927 -2.41911 23.9679 0.0 91.1019 0.0 13.3751 -25.595 49.9074 0.0 0.0 0.0 0.0 0.0 0.0 115.1629 -1.79957 -14.3255 35.8559 -11.3801 6.99821 0.0 109.115 0.0 62.5909 -19.7279 100.572 0.0 0.0 0.0 0.0 0.0 0.0 5.53504 -0.64139 -4.04034 0.0 6.7381 0.0 -9.1525 0.0642004 6.55584 0.0 -38.3692 0.0 4.88355 -15.3566 5.3951 0.0 16.8458 0.0 15.885 10.04292 -8.55396 0.0 -39.4237 0.0 
  0.8554750061035157 5.612360229492188 9.3218798828125 -132.985 81.6274 489.874 -2.29215 -8.07394 -1.95581 15.5157 8.26516 -1.77616 -16.9362 61.0568 0.893905 73.729 -76.6752 779.074 -127.2551 -6.0898 8.42753 -28.8581 -2.65018 23.7435 0.0 90.9613 0.0 13.1535 -25.5435 49.761 0.0 0.0 0.0 0.0 0.0 0.0 115.2061 -1.71993 -14.0137 35.9205 -11.4509 6.71708 0.0 108.42 0.0 63.6119 -18.0654 99.4854 0.0 0.0 0.0 0.0 0.0 0.0 5.70006 -0.48802 -3.94702 0.0 6.98623 0.0 -9.37234 -0.2791996 6.58872 0.0 -38.271797 0.0 5.3298 -14.8213 5.99148 0.0 16.2099 0.0 14.4894 10.43788 -9.89691 0.0 -38.401 0.0 
  0.8241739654541016 5.572069702148437 9.318079833984376 -132.8 81.6313 489.515 -2.03535 -8.281 -1.76289 15.2648 8.33249 -1.64833 -16.7174 61.2041 0.630568 74.4502 -76.6331 779.863 -127.3461 -6.15627 8.39982 -29.1264 -2.88726 23.2775 0.0 90.8039 0.0 13.0918 -25.6893 49.8972 0.0 0.0 0.0 0.0 0.0 0.0 115.2333 -1.60696 -13.9388 36.0852 -11.4195 6.75106 0.0 108.011 0.0 64.1788 -17.4845 98.7387 0.0 0.0 0.0 0.0 0.0 0.0 5.86208 -0.320771 -3.83935 0.0 7.33586 0.0 -9.57193 -0.6654997 6.66374 0.0 -38.261 0.0 5.66378 -14.2325 5.88766 0.0 15.7504 0.0 13.2223 10.294661 -10.5688 0.0 -38.7476 0.0 
  0.7915589904785156 5.529849853515625 9.314630126953125 -132.462 81.6462 489.011 -1.68777 -8.49824 -1.5762 14.9658 8.42946 -1.55571 -16.7532 61.3131 0.66932 75.273 -76.6348 780.67 -127.3879 -6.2372 8.37564 -29.5629 -3.10884 22.6993 0.0 90.6071 0.0 13.1757 -25.9167 50.3609 0.0 0.0 0.0 0.0 0.0 0.0 115.3346 -1.43422 -14.0476 36.2534 -11.2848 6.99784 0.0 107.799 0.0 65.0035 -17.4461 99.2479 0.0 0.0 0.0 0.0 0.0 0.0 6.02462 -0.176516 -3.68107 0.0 7.78956 0.0 -9.78208 -1.0590992 6.71727 0.0 -38.3344 0.0 5.89201 -13.5926 5.22222 0.0 15.0975 0.0 12.4439 10.25648 -10.4579 0.0 -37.9943 0.0 
  0.7552980041503906 5.48510986328125 9.311699829101563 -132.08 81.5968 488.52 -1.38591 -8.77965 -1.43616 14.8795 8.52801 -1.4987 -16.9005 61.3557 0.814721 75.7377 -76.6799 781.144 -127.4746 -6.29591 8.29062 -30.1271 -3.41973 22.0898 0.0 90.4785 0.0 13.2363 -26.2865 50.7531 0.0 0.0 0.0 0.0 0.0 0.0 115.3943 -1.32317 -14.0565 36.3902 -11.1671 7.20425 0.0 107.668 0.0 65.8765 -17.5682 99.6185 0.0 0.0 0.0 0.0 0.0 0.0 6.25502 -0.116049 -3.52122 0.0 8.34132 0.0 -9.93909 -1.4689999 6.75198 0.0 -38.2883 0.0 6.15181 -12.9254 4.6771 0.0 14.3009 0.0 12.1427 10.27017 -10.3395 0.0 -37.640198 0.0 
  0.7144219970703125 5.439249877929687 9.30968017578125 -131.425 81.5041 487.758 -1.14008 -9.04551 -1.34624 15.0142 8.5953 -1.47268 -17.3951 61.3071 1.34823 75.816 -76.8023 781.213 -127.5217 -6.36623 8.28931 -30.9395 -3.75526 21.2647 0.0 90.3755 0.0 13.6187 -26.5772 50.8355 0.0 0.0 0.0 0.0 0.0 0.0 115.4386 -1.29373 -14.0782 36.4141 -10.9926 7.36101 0.0 107.588 0.0 66.5117 -17.6415 99.9646 0.0 0.0 0.0 0.0 0.0 0.0 6.57808 -0.101991 -3.3354 0.0 9.01364 0.0 -10.1995 -1.9109001 6.69773 0.0 -38.3042 0.0 6.52769 -12.3236 4.74595 0.0 13.7355 0.0 11.9613 10.209761 -10.362 0.0 -37.4762 0.0 
  0.6704940032958985 5.395009765625 9.308389892578125 -130.528 81.4088 486.825 -0.981672 -9.2344 -1.32686 15.3119 8.60814 -1.48745 -17.9256 61.1713 1.95416 75.5543 -76.9153 780.963 -127.5605 -6.39148 8.26491 -31.8627 -4.1917 20.3935 0.0 90.3461 0.0 13.8344 -26.8857 50.9995 0.0 0.0 0.0 0.0 0.0 0.0 115.4554 -1.29809 -14.0428 36.39 -10.7803 7.53701 0.0 107.37 0.0 67.2248 -17.1378 100.417 0.0 0.0 0.0 0.0 0.0 0.0 6.93894 -0.185638 -3.14535 0.0 9.88451 0.0 -10.3747 -2.3269005 6.63804 0.0 -38.4047 0.0 6.93154 -11.8589 5.0411 0.0 13.5247 0.0 11.9264 10.03731 -10.4061 0.0 -37.3933 0.0 
  0.6229320144653321 5.350830078125 9.306309814453124 -129.549 81.3538 485.829 -0.997236 -9.29739 -1.41385 15.8453 8.46991 -1.5381 -18.6432 61.028 2.76205 75.0773 -77.0615 780.539 -127.5676 -6.5036 8.31483 -33.0261 -4.64396 19.271 0.0 90.3972 0.0 13.6962 -27.4031 50.8623 0.0 0.0 0.0 0.0 0.0 0.0 115.3577 -1.33638 -14.2091 36.3571 -10.4359 7.75913 0.0 107.046 0.0 67.7608 -16.2044 100.325 0.0 0.0 0.0 0.0 0.0 0.0 7.28717 -0.342104 -3.03905 0.0 10.9513 0.0 -10.7629 -2.8432999 6.56255 0.0 -38.3317 0.0 7.261 -11.4907 4.92444 0.0 13.5709 0.0 11.8885 9.85718 -9.96288 0.0 -37.2378 0.0 
